<mxfile host="app.diagrams.net" agent="Mozilla/5.0 (X11; Linux x86_64; rv:130.0) Gecko/20100101 Firefox/130.0" version="24.7.17">
  <diagram name="Page-1" id="2n_wA3CY1fYc2BVuBC7R">
    <mxGraphModel dx="2056" dy="1105" grid="1" gridSize="10" guides="1" tooltips="1" connect="1" arrows="1" fold="1" page="1" pageScale="1" pageWidth="850" pageHeight="1100" math="0" shadow="0">
      <root>
        <mxCell id="0" />
        <mxCell id="1" parent="0" />
        <mxCell id="wqGp6QEfIblkiJ9JCrI0-51" style="edgeStyle=orthogonalEdgeStyle;rounded=0;orthogonalLoop=1;jettySize=auto;html=1;exitX=1;exitY=0.5;exitDx=0;exitDy=0;entryX=1;entryY=0.5;entryDx=0;entryDy=0;" edge="1" parent="1" source="wqGp6QEfIblkiJ9JCrI0-3" target="wqGp6QEfIblkiJ9JCrI0-4">
          <mxGeometry relative="1" as="geometry">
            <Array as="points">
              <mxPoint x="1170" y="365" />
              <mxPoint x="1170" y="50" />
            </Array>
          </mxGeometry>
        </mxCell>
        <mxCell id="wqGp6QEfIblkiJ9JCrI0-69" style="edgeStyle=orthogonalEdgeStyle;rounded=0;orthogonalLoop=1;jettySize=auto;html=1;exitX=1;exitY=0.5;exitDx=0;exitDy=0;entryX=0.75;entryY=1;entryDx=0;entryDy=0;" edge="1" parent="1" source="wqGp6QEfIblkiJ9JCrI0-3" target="wqGp6QEfIblkiJ9JCrI0-9">
          <mxGeometry relative="1" as="geometry">
            <Array as="points">
              <mxPoint x="1170" y="365" />
              <mxPoint x="1170" y="650" />
              <mxPoint x="344" y="650" />
            </Array>
          </mxGeometry>
        </mxCell>
        <mxCell id="wqGp6QEfIblkiJ9JCrI0-91" style="edgeStyle=orthogonalEdgeStyle;rounded=0;orthogonalLoop=1;jettySize=auto;html=1;exitX=1;exitY=0.5;exitDx=0;exitDy=0;entryX=0.75;entryY=1;entryDx=0;entryDy=0;" edge="1" parent="1" source="wqGp6QEfIblkiJ9JCrI0-3" target="wqGp6QEfIblkiJ9JCrI0-39">
          <mxGeometry relative="1" as="geometry">
            <Array as="points">
              <mxPoint x="1170" y="365" />
              <mxPoint x="1170" y="650" />
              <mxPoint x="420" y="650" />
              <mxPoint x="420" y="420" />
            </Array>
          </mxGeometry>
        </mxCell>
        <mxCell id="wqGp6QEfIblkiJ9JCrI0-3" value="" style="shape=stencil(tZXRjoIwEEW/pq+bQsPq6wb1PyqOS2NtSdvV3b93oGCs0I0IJISkc7mHIb1DCcttySsgKS0J25A0TSjFO66vT2tuKyicL164EXwvwSvWGX2Cqzi4liFUCUa4WmVbQr/wmfpieaGVQojQygbKg44wLhR66a+Hta//C1YV8s/gwLRNNtXd68yPbAFqskSnIbPre95OZ6KGvSaL7NQ81ORNJsuxEgsxy/e8OH0b/aMOfVdUO2oDA8JdFlL6AYt9YMXruesJnXzWF/h/moawnVsK9eC+/wxaP5sKWI0FPGWMTvOvx9qz0P+ZTfOzsf7Q/sL+FVLbaHKwHgkPHguDmWs8vcQ2VX+ONIUb);whiteSpace=wrap;html=1;" vertex="1" parent="1">
          <mxGeometry x="1020" y="270" width="90" height="190" as="geometry" />
        </mxCell>
        <mxCell id="wqGp6QEfIblkiJ9JCrI0-50" style="edgeStyle=orthogonalEdgeStyle;rounded=0;orthogonalLoop=1;jettySize=auto;html=1;exitX=0;exitY=0.5;exitDx=0;exitDy=0;entryX=0.25;entryY=1;entryDx=0;entryDy=0;" edge="1" parent="1" source="wqGp6QEfIblkiJ9JCrI0-4" target="wqGp6QEfIblkiJ9JCrI0-39">
          <mxGeometry relative="1" as="geometry">
            <Array as="points">
              <mxPoint x="420" y="50" />
              <mxPoint x="420" y="360" />
            </Array>
          </mxGeometry>
        </mxCell>
        <mxCell id="wqGp6QEfIblkiJ9JCrI0-52" style="edgeStyle=orthogonalEdgeStyle;rounded=0;orthogonalLoop=1;jettySize=auto;html=1;exitX=0;exitY=0.5;exitDx=0;exitDy=0;entryX=0.25;entryY=1;entryDx=0;entryDy=0;" edge="1" parent="1" source="wqGp6QEfIblkiJ9JCrI0-4" target="wqGp6QEfIblkiJ9JCrI0-33">
          <mxGeometry relative="1" as="geometry" />
        </mxCell>
        <mxCell id="wqGp6QEfIblkiJ9JCrI0-61" style="edgeStyle=orthogonalEdgeStyle;rounded=0;orthogonalLoop=1;jettySize=auto;html=1;exitX=0;exitY=0.5;exitDx=0;exitDy=0;entryX=0.75;entryY=0;entryDx=0;entryDy=0;" edge="1" parent="1" source="wqGp6QEfIblkiJ9JCrI0-4" target="wqGp6QEfIblkiJ9JCrI0-60">
          <mxGeometry relative="1" as="geometry" />
        </mxCell>
        <mxCell id="wqGp6QEfIblkiJ9JCrI0-4" value="PC" style="rounded=0;whiteSpace=wrap;html=1;" vertex="1" parent="1">
          <mxGeometry x="965" y="10" width="55" height="80" as="geometry" />
        </mxCell>
        <mxCell id="wqGp6QEfIblkiJ9JCrI0-36" style="edgeStyle=orthogonalEdgeStyle;rounded=0;orthogonalLoop=1;jettySize=auto;html=1;exitX=1;exitY=0.25;exitDx=0;exitDy=0;entryX=0;entryY=0.25;entryDx=0;entryDy=0;" edge="1" parent="1" source="wqGp6QEfIblkiJ9JCrI0-5" target="wqGp6QEfIblkiJ9JCrI0-60">
          <mxGeometry relative="1" as="geometry" />
        </mxCell>
        <mxCell id="wqGp6QEfIblkiJ9JCrI0-5" value="" style="swimlane;startSize=0;" vertex="1" parent="1">
          <mxGeometry x="90" y="70" width="150" height="160" as="geometry" />
        </mxCell>
        <mxCell id="wqGp6QEfIblkiJ9JCrI0-6" value="Instruction Memory" style="text;html=1;align=center;verticalAlign=middle;resizable=0;points=[];autosize=1;strokeColor=none;fillColor=none;" vertex="1" parent="wqGp6QEfIblkiJ9JCrI0-5">
          <mxGeometry x="10" y="60" width="130" height="30" as="geometry" />
        </mxCell>
        <mxCell id="wqGp6QEfIblkiJ9JCrI0-7" value="Address" style="text;html=1;align=center;verticalAlign=middle;resizable=0;points=[];autosize=1;strokeColor=none;fillColor=none;" vertex="1" parent="wqGp6QEfIblkiJ9JCrI0-5">
          <mxGeometry x="70" y="10" width="70" height="30" as="geometry" />
        </mxCell>
        <mxCell id="wqGp6QEfIblkiJ9JCrI0-41" style="edgeStyle=orthogonalEdgeStyle;rounded=0;orthogonalLoop=1;jettySize=auto;html=1;exitX=1;exitY=0.25;exitDx=0;exitDy=0;entryX=0.5;entryY=1;entryDx=0;entryDy=0;" edge="1" parent="1" source="wqGp6QEfIblkiJ9JCrI0-9" target="wqGp6QEfIblkiJ9JCrI0-39">
          <mxGeometry relative="1" as="geometry" />
        </mxCell>
        <mxCell id="wqGp6QEfIblkiJ9JCrI0-9" value="" style="swimlane;startSize=0;" vertex="1" parent="1">
          <mxGeometry x="220" y="340" width="165" height="200" as="geometry" />
        </mxCell>
        <mxCell id="wqGp6QEfIblkiJ9JCrI0-12" value="Data Cache" style="text;html=1;align=center;verticalAlign=middle;whiteSpace=wrap;rounded=0;" vertex="1" parent="wqGp6QEfIblkiJ9JCrI0-9">
          <mxGeometry x="42.5" y="85" width="80" height="30" as="geometry" />
        </mxCell>
        <mxCell id="wqGp6QEfIblkiJ9JCrI0-48" value="Address" style="text;html=1;align=center;verticalAlign=middle;resizable=0;points=[];autosize=1;strokeColor=none;fillColor=none;" vertex="1" parent="wqGp6QEfIblkiJ9JCrI0-9">
          <mxGeometry x="80" y="160" width="70" height="30" as="geometry" />
        </mxCell>
        <mxCell id="wqGp6QEfIblkiJ9JCrI0-43" style="edgeStyle=orthogonalEdgeStyle;rounded=0;orthogonalLoop=1;jettySize=auto;html=1;exitX=1;exitY=0.75;exitDx=0;exitDy=0;entryX=0.75;entryY=1;entryDx=0;entryDy=0;" edge="1" parent="1" source="wqGp6QEfIblkiJ9JCrI0-10" target="wqGp6QEfIblkiJ9JCrI0-70">
          <mxGeometry relative="1" as="geometry">
            <Array as="points">
              <mxPoint x="800" y="370" />
              <mxPoint x="800" y="590" />
              <mxPoint x="150" y="590" />
              <mxPoint x="150" y="540" />
            </Array>
          </mxGeometry>
        </mxCell>
        <mxCell id="wqGp6QEfIblkiJ9JCrI0-94" style="edgeStyle=orthogonalEdgeStyle;rounded=0;orthogonalLoop=1;jettySize=auto;html=1;exitX=1;exitY=0.75;exitDx=0;exitDy=0;entryX=0.5;entryY=1;entryDx=0;entryDy=0;" edge="1" parent="1" source="wqGp6QEfIblkiJ9JCrI0-10" target="wqGp6QEfIblkiJ9JCrI0-27">
          <mxGeometry relative="1" as="geometry">
            <Array as="points">
              <mxPoint x="820" y="370" />
              <mxPoint x="820" y="470" />
            </Array>
          </mxGeometry>
        </mxCell>
        <mxCell id="wqGp6QEfIblkiJ9JCrI0-10" value="" style="swimlane;startSize=0;" vertex="1" parent="1">
          <mxGeometry x="560" y="220" width="220" height="200" as="geometry" />
        </mxCell>
        <mxCell id="wqGp6QEfIblkiJ9JCrI0-11" value="Register File" style="text;html=1;align=center;verticalAlign=middle;resizable=0;points=[];autosize=1;strokeColor=none;fillColor=none;" vertex="1" parent="wqGp6QEfIblkiJ9JCrI0-10">
          <mxGeometry x="55" y="85" width="90" height="30" as="geometry" />
        </mxCell>
        <mxCell id="wqGp6QEfIblkiJ9JCrI0-13" value="rRs" style="text;html=1;align=center;verticalAlign=middle;whiteSpace=wrap;rounded=0;" vertex="1" parent="wqGp6QEfIblkiJ9JCrI0-10">
          <mxGeometry y="10" width="60" height="30" as="geometry" />
        </mxCell>
        <mxCell id="wqGp6QEfIblkiJ9JCrI0-14" value="rRd" style="text;html=1;align=center;verticalAlign=middle;whiteSpace=wrap;rounded=0;" vertex="1" parent="wqGp6QEfIblkiJ9JCrI0-10">
          <mxGeometry x="60" y="10" width="60" height="30" as="geometry" />
        </mxCell>
        <mxCell id="wqGp6QEfIblkiJ9JCrI0-18" value="&lt;div&gt;Rs&lt;/div&gt;&lt;div&gt;&lt;br&gt;&lt;/div&gt;" style="text;html=1;align=center;verticalAlign=middle;whiteSpace=wrap;rounded=0;" vertex="1" parent="wqGp6QEfIblkiJ9JCrI0-10">
          <mxGeometry x="145" y="55" width="70" height="30" as="geometry" />
        </mxCell>
        <mxCell id="wqGp6QEfIblkiJ9JCrI0-21" value="&lt;div&gt;rRt&lt;/div&gt;" style="text;html=1;align=center;verticalAlign=middle;whiteSpace=wrap;rounded=0;" vertex="1" parent="wqGp6QEfIblkiJ9JCrI0-10">
          <mxGeometry x="130" y="10" width="60" height="30" as="geometry" />
        </mxCell>
        <mxCell id="wqGp6QEfIblkiJ9JCrI0-23" value="&lt;div&gt;Rt&lt;/div&gt;" style="text;html=1;align=center;verticalAlign=middle;whiteSpace=wrap;rounded=0;" vertex="1" parent="wqGp6QEfIblkiJ9JCrI0-10">
          <mxGeometry x="145" y="130" width="70" height="30" as="geometry" />
        </mxCell>
        <mxCell id="wqGp6QEfIblkiJ9JCrI0-37" value="Rd" style="text;html=1;align=center;verticalAlign=middle;whiteSpace=wrap;rounded=0;" vertex="1" parent="wqGp6QEfIblkiJ9JCrI0-10">
          <mxGeometry y="130" width="60" height="30" as="geometry" />
        </mxCell>
        <mxCell id="wqGp6QEfIblkiJ9JCrI0-27" value="" style="shape=trapezoid;perimeter=trapezoidPerimeter;whiteSpace=wrap;html=1;fixedSize=1;rotation=90;" vertex="1" parent="1">
          <mxGeometry x="865" y="450" width="120" height="40" as="geometry" />
        </mxCell>
        <mxCell id="wqGp6QEfIblkiJ9JCrI0-31" style="edgeStyle=orthogonalEdgeStyle;rounded=0;orthogonalLoop=1;jettySize=auto;html=1;exitX=0.5;exitY=1;exitDx=0;exitDy=0;entryX=0.75;entryY=0;entryDx=0;entryDy=0;" edge="1" parent="1" source="wqGp6QEfIblkiJ9JCrI0-28" target="wqGp6QEfIblkiJ9JCrI0-10">
          <mxGeometry relative="1" as="geometry" />
        </mxCell>
        <mxCell id="wqGp6QEfIblkiJ9JCrI0-32" style="edgeStyle=orthogonalEdgeStyle;rounded=0;orthogonalLoop=1;jettySize=auto;html=1;exitX=0.945;exitY=1.074;exitDx=0;exitDy=0;entryX=0.25;entryY=1;entryDx=0;entryDy=0;exitPerimeter=0;" edge="1" parent="1" source="wqGp6QEfIblkiJ9JCrI0-28" target="wqGp6QEfIblkiJ9JCrI0-27">
          <mxGeometry relative="1" as="geometry">
            <Array as="points">
              <mxPoint x="767" y="180" />
              <mxPoint x="840" y="180" />
              <mxPoint x="840" y="440" />
            </Array>
          </mxGeometry>
        </mxCell>
        <mxCell id="wqGp6QEfIblkiJ9JCrI0-83" style="edgeStyle=orthogonalEdgeStyle;rounded=0;orthogonalLoop=1;jettySize=auto;html=1;entryX=1;entryY=0.5;entryDx=0;entryDy=0;" edge="1" parent="1" source="wqGp6QEfIblkiJ9JCrI0-28" target="wqGp6QEfIblkiJ9JCrI0-82">
          <mxGeometry relative="1" as="geometry" />
        </mxCell>
        <mxCell id="wqGp6QEfIblkiJ9JCrI0-28" value="&lt;div&gt;Instruction register&lt;/div&gt;" style="rounded=0;whiteSpace=wrap;html=1;" vertex="1" parent="1">
          <mxGeometry x="540" y="90" width="240" height="40" as="geometry" />
        </mxCell>
        <mxCell id="wqGp6QEfIblkiJ9JCrI0-29" style="edgeStyle=orthogonalEdgeStyle;rounded=0;orthogonalLoop=1;jettySize=auto;html=1;exitX=0.25;exitY=1;exitDx=0;exitDy=0;entryX=0.157;entryY=0.006;entryDx=0;entryDy=0;entryPerimeter=0;" edge="1" parent="1" source="wqGp6QEfIblkiJ9JCrI0-28" target="wqGp6QEfIblkiJ9JCrI0-10">
          <mxGeometry relative="1" as="geometry" />
        </mxCell>
        <mxCell id="wqGp6QEfIblkiJ9JCrI0-30" style="edgeStyle=orthogonalEdgeStyle;rounded=0;orthogonalLoop=1;jettySize=auto;html=1;exitX=0.421;exitY=1.044;exitDx=0;exitDy=0;entryX=0.398;entryY=0.006;entryDx=0;entryDy=0;entryPerimeter=0;exitPerimeter=0;" edge="1" parent="1" source="wqGp6QEfIblkiJ9JCrI0-28" target="wqGp6QEfIblkiJ9JCrI0-10">
          <mxGeometry relative="1" as="geometry" />
        </mxCell>
        <mxCell id="wqGp6QEfIblkiJ9JCrI0-33" value="" style="shape=trapezoid;perimeter=trapezoidPerimeter;whiteSpace=wrap;html=1;fixedSize=1;rotation=90;" vertex="1" parent="1">
          <mxGeometry x="865" y="240" width="120" height="40" as="geometry" />
        </mxCell>
        <mxCell id="wqGp6QEfIblkiJ9JCrI0-34" style="edgeStyle=orthogonalEdgeStyle;rounded=0;orthogonalLoop=1;jettySize=auto;html=1;exitX=1;exitY=0.5;exitDx=0;exitDy=0;entryX=0.75;entryY=1;entryDx=0;entryDy=0;" edge="1" parent="1" source="wqGp6QEfIblkiJ9JCrI0-18" target="wqGp6QEfIblkiJ9JCrI0-33">
          <mxGeometry relative="1" as="geometry" />
        </mxCell>
        <mxCell id="wqGp6QEfIblkiJ9JCrI0-40" style="edgeStyle=orthogonalEdgeStyle;rounded=0;orthogonalLoop=1;jettySize=auto;html=1;exitX=0.5;exitY=0;exitDx=0;exitDy=0;entryX=0;entryY=0.5;entryDx=0;entryDy=0;" edge="1" parent="1" source="wqGp6QEfIblkiJ9JCrI0-39" target="wqGp6QEfIblkiJ9JCrI0-37">
          <mxGeometry relative="1" as="geometry" />
        </mxCell>
        <mxCell id="wqGp6QEfIblkiJ9JCrI0-39" value="" style="shape=trapezoid;perimeter=trapezoidPerimeter;whiteSpace=wrap;html=1;fixedSize=1;rotation=90;" vertex="1" parent="1">
          <mxGeometry x="425" y="370" width="120" height="40" as="geometry" />
        </mxCell>
        <mxCell id="wqGp6QEfIblkiJ9JCrI0-45" style="edgeStyle=orthogonalEdgeStyle;rounded=0;orthogonalLoop=1;jettySize=auto;html=1;entryX=0.011;entryY=0.133;entryDx=0;entryDy=0;entryPerimeter=0;" edge="1" parent="1" source="wqGp6QEfIblkiJ9JCrI0-33" target="wqGp6QEfIblkiJ9JCrI0-3">
          <mxGeometry relative="1" as="geometry" />
        </mxCell>
        <mxCell id="wqGp6QEfIblkiJ9JCrI0-46" style="edgeStyle=orthogonalEdgeStyle;rounded=0;orthogonalLoop=1;jettySize=auto;html=1;entryX=0.024;entryY=0.926;entryDx=0;entryDy=0;entryPerimeter=0;" edge="1" parent="1" source="wqGp6QEfIblkiJ9JCrI0-27" target="wqGp6QEfIblkiJ9JCrI0-3">
          <mxGeometry relative="1" as="geometry" />
        </mxCell>
        <mxCell id="wqGp6QEfIblkiJ9JCrI0-53" value="" style="endArrow=classic;html=1;rounded=0;entryX=0.065;entryY=0.606;entryDx=0;entryDy=0;entryPerimeter=0;" edge="1" parent="1">
          <mxGeometry width="50" height="50" relative="1" as="geometry">
            <mxPoint x="485" y="272.2" as="sourcePoint" />
            <mxPoint x="485.75999999999976" y="340.00000000000017" as="targetPoint" />
          </mxGeometry>
        </mxCell>
        <mxCell id="wqGp6QEfIblkiJ9JCrI0-55" value="Control" style="text;html=1;align=center;verticalAlign=middle;whiteSpace=wrap;rounded=0;" vertex="1" parent="1">
          <mxGeometry x="455" y="242.2" width="60" height="30" as="geometry" />
        </mxCell>
        <mxCell id="wqGp6QEfIblkiJ9JCrI0-56" value="" style="endArrow=classic;html=1;rounded=0;" edge="1" parent="1">
          <mxGeometry width="50" height="50" relative="1" as="geometry">
            <mxPoint x="925" y="360" as="sourcePoint" />
            <mxPoint x="926" y="420" as="targetPoint" />
          </mxGeometry>
        </mxCell>
        <mxCell id="wqGp6QEfIblkiJ9JCrI0-57" value="Control" style="text;html=1;align=center;verticalAlign=middle;whiteSpace=wrap;rounded=0;" vertex="1" parent="1">
          <mxGeometry x="895" y="330" width="60" height="30" as="geometry" />
        </mxCell>
        <mxCell id="wqGp6QEfIblkiJ9JCrI0-58" value="" style="endArrow=classic;html=1;rounded=0;entryX=0.678;entryY=0.212;entryDx=0;entryDy=0;entryPerimeter=0;" edge="1" parent="1" target="wqGp6QEfIblkiJ9JCrI0-3">
          <mxGeometry width="50" height="50" relative="1" as="geometry">
            <mxPoint x="1080" y="245" as="sourcePoint" />
            <mxPoint x="1081" y="305" as="targetPoint" />
          </mxGeometry>
        </mxCell>
        <mxCell id="wqGp6QEfIblkiJ9JCrI0-59" value="Control" style="text;html=1;align=center;verticalAlign=middle;whiteSpace=wrap;rounded=0;" vertex="1" parent="1">
          <mxGeometry x="1050" y="210" width="60" height="30" as="geometry" />
        </mxCell>
        <mxCell id="wqGp6QEfIblkiJ9JCrI0-64" style="edgeStyle=orthogonalEdgeStyle;rounded=0;orthogonalLoop=1;jettySize=auto;html=1;exitX=0.25;exitY=0;exitDx=0;exitDy=0;" edge="1" parent="1" source="wqGp6QEfIblkiJ9JCrI0-60">
          <mxGeometry relative="1" as="geometry">
            <mxPoint x="200" y="69.72413793103453" as="targetPoint" />
            <Array as="points">
              <mxPoint x="320" y="50" />
              <mxPoint x="200" y="50" />
            </Array>
          </mxGeometry>
        </mxCell>
        <mxCell id="wqGp6QEfIblkiJ9JCrI0-60" value="" style="rounded=0;whiteSpace=wrap;html=1;" vertex="1" parent="1">
          <mxGeometry x="290" y="70" width="120" height="160" as="geometry" />
        </mxCell>
        <mxCell id="wqGp6QEfIblkiJ9JCrI0-65" value="Address" style="text;html=1;align=center;verticalAlign=middle;resizable=0;points=[];autosize=1;strokeColor=none;fillColor=none;" vertex="1" parent="1">
          <mxGeometry x="315" y="80" width="70" height="30" as="geometry" />
        </mxCell>
        <mxCell id="wqGp6QEfIblkiJ9JCrI0-66" value="Instruction Cache" style="text;html=1;align=center;verticalAlign=middle;resizable=0;points=[];autosize=1;strokeColor=none;fillColor=none;" vertex="1" parent="1">
          <mxGeometry x="290" y="130" width="120" height="30" as="geometry" />
        </mxCell>
        <mxCell id="wqGp6QEfIblkiJ9JCrI0-78" style="edgeStyle=orthogonalEdgeStyle;rounded=0;orthogonalLoop=1;jettySize=auto;html=1;exitX=1;exitY=0.25;exitDx=0;exitDy=0;entryX=0;entryY=0.25;entryDx=0;entryDy=0;" edge="1" parent="1" source="wqGp6QEfIblkiJ9JCrI0-70" target="wqGp6QEfIblkiJ9JCrI0-9">
          <mxGeometry relative="1" as="geometry" />
        </mxCell>
        <mxCell id="wqGp6QEfIblkiJ9JCrI0-70" value="" style="swimlane;startSize=0;" vertex="1" parent="1">
          <mxGeometry x="40" y="340" width="150" height="200" as="geometry" />
        </mxCell>
        <mxCell id="wqGp6QEfIblkiJ9JCrI0-71" value="Instruction Memory" style="text;html=1;align=center;verticalAlign=middle;resizable=0;points=[];autosize=1;strokeColor=none;fillColor=none;" vertex="1" parent="wqGp6QEfIblkiJ9JCrI0-70">
          <mxGeometry x="10" y="60" width="130" height="30" as="geometry" />
        </mxCell>
        <mxCell id="wqGp6QEfIblkiJ9JCrI0-72" value="Address" style="text;html=1;align=center;verticalAlign=middle;resizable=0;points=[];autosize=1;strokeColor=none;fillColor=none;" vertex="1" parent="wqGp6QEfIblkiJ9JCrI0-70">
          <mxGeometry x="10" y="170" width="70" height="30" as="geometry" />
        </mxCell>
        <mxCell id="wqGp6QEfIblkiJ9JCrI0-74" value="Data Out" style="text;html=1;align=center;verticalAlign=middle;resizable=0;points=[];autosize=1;strokeColor=none;fillColor=none;" vertex="1" parent="wqGp6QEfIblkiJ9JCrI0-70">
          <mxGeometry x="70" y="20" width="70" height="30" as="geometry" />
        </mxCell>
        <mxCell id="wqGp6QEfIblkiJ9JCrI0-79" value="Data In" style="text;html=1;align=center;verticalAlign=middle;resizable=0;points=[];autosize=1;strokeColor=none;fillColor=none;" vertex="1" parent="wqGp6QEfIblkiJ9JCrI0-70">
          <mxGeometry x="85" y="170" width="60" height="30" as="geometry" />
        </mxCell>
        <mxCell id="wqGp6QEfIblkiJ9JCrI0-81" style="edgeStyle=orthogonalEdgeStyle;rounded=0;orthogonalLoop=1;jettySize=auto;html=1;exitX=1;exitY=0.5;exitDx=0;exitDy=0;entryX=0.497;entryY=1.048;entryDx=0;entryDy=0;entryPerimeter=0;" edge="1" parent="1" source="wqGp6QEfIblkiJ9JCrI0-3" target="wqGp6QEfIblkiJ9JCrI0-72">
          <mxGeometry relative="1" as="geometry">
            <Array as="points">
              <mxPoint x="1170" y="365" />
              <mxPoint x="1170" y="650" />
              <mxPoint x="85" y="650" />
            </Array>
          </mxGeometry>
        </mxCell>
        <mxCell id="wqGp6QEfIblkiJ9JCrI0-82" value="&lt;div&gt;Control&lt;/div&gt;" style="text;html=1;align=center;verticalAlign=middle;whiteSpace=wrap;rounded=0;" vertex="1" parent="1">
          <mxGeometry x="440" y="95" width="60" height="30" as="geometry" />
        </mxCell>
        <mxCell id="wqGp6QEfIblkiJ9JCrI0-88" style="edgeStyle=orthogonalEdgeStyle;rounded=0;orthogonalLoop=1;jettySize=auto;html=1;exitX=0.5;exitY=0;exitDx=0;exitDy=0;entryX=0.842;entryY=0.975;entryDx=0;entryDy=0;entryPerimeter=0;" edge="1" parent="1" source="wqGp6QEfIblkiJ9JCrI0-87" target="wqGp6QEfIblkiJ9JCrI0-27">
          <mxGeometry relative="1" as="geometry">
            <Array as="points">
              <mxPoint x="870" y="590" />
              <mxPoint x="870" y="511" />
            </Array>
          </mxGeometry>
        </mxCell>
        <mxCell id="wqGp6QEfIblkiJ9JCrI0-87" value="Immidiate Value from Control" style="text;html=1;align=center;verticalAlign=middle;whiteSpace=wrap;rounded=0;" vertex="1" parent="1">
          <mxGeometry x="840" y="580" width="60" height="30" as="geometry" />
        </mxCell>
        <mxCell id="wqGp6QEfIblkiJ9JCrI0-92" value="" style="endArrow=classic;html=1;rounded=0;entryX=0.065;entryY=0.606;entryDx=0;entryDy=0;entryPerimeter=0;" edge="1" parent="1">
          <mxGeometry width="50" height="50" relative="1" as="geometry">
            <mxPoint x="925" y="142.2" as="sourcePoint" />
            <mxPoint x="925.7599999999998" y="210.00000000000017" as="targetPoint" />
          </mxGeometry>
        </mxCell>
        <mxCell id="wqGp6QEfIblkiJ9JCrI0-93" value="Control" style="text;html=1;align=center;verticalAlign=middle;whiteSpace=wrap;rounded=0;" vertex="1" parent="1">
          <mxGeometry x="895" y="112.19999999999999" width="60" height="30" as="geometry" />
        </mxCell>
        <mxCell id="wqGp6QEfIblkiJ9JCrI0-95" value="Shift amount" style="text;html=1;align=center;verticalAlign=middle;whiteSpace=wrap;rounded=0;" vertex="1" parent="1">
          <mxGeometry x="805" y="535" width="60" height="30" as="geometry" />
        </mxCell>
        <mxCell id="wqGp6QEfIblkiJ9JCrI0-96" style="edgeStyle=orthogonalEdgeStyle;rounded=0;orthogonalLoop=1;jettySize=auto;html=1;entryX=0.7;entryY=0.975;entryDx=0;entryDy=0;entryPerimeter=0;" edge="1" parent="1" source="wqGp6QEfIblkiJ9JCrI0-95" target="wqGp6QEfIblkiJ9JCrI0-27">
          <mxGeometry relative="1" as="geometry">
            <Array as="points">
              <mxPoint x="835" y="494" />
            </Array>
          </mxGeometry>
        </mxCell>
      </root>
    </mxGraphModel>
  </diagram>
</mxfile>
